<svg xmlns="http://www.w3.org/2000/svg" xmlns:xlink="http://www.w3.org/1999/xlink" width="1080" zoomAndPan="magnify" viewBox="0 0 810 809.999993" height="1080" preserveAspectRatio="xMidYMid meet" version="1.0"><path fill="#000000" d="M 91.691406 810 L 320.792969 810 C 323.800781 810.015625 326.800781 809.882812 329.792969 809.601562 C 332.789062 809.320312 335.761719 808.890625 338.710938 808.316406 C 341.664062 807.738281 344.578125 807.019531 347.460938 806.15625 C 350.339844 805.289062 353.167969 804.285156 355.949219 803.140625 C 358.730469 801.996094 361.449219 800.71875 364.101562 799.304688 C 366.757812 797.890625 369.335938 796.351562 371.835938 794.683594 C 374.339844 793.015625 376.753906 791.226562 379.078125 789.320312 C 381.402344 787.414062 383.628906 785.394531 385.753906 783.265625 L 775.246094 393.773438 C 776.308594 392.707031 777.34375 391.617188 778.351562 390.503906 C 779.359375 389.390625 780.339844 388.25 781.292969 387.089844 C 782.246094 385.925781 783.167969 384.742188 784.0625 383.53125 C 784.957031 382.324219 785.824219 381.09375 786.65625 379.84375 C 787.492188 378.59375 788.292969 377.324219 789.066406 376.035156 C 789.835938 374.746094 790.578125 373.4375 791.285156 372.109375 C 791.992188 370.785156 792.667969 369.441406 793.308594 368.082031 C 793.953125 366.722656 794.558594 365.351562 795.132812 363.960938 C 795.707031 362.570312 796.25 361.167969 796.753906 359.753906 C 797.261719 358.339844 797.730469 356.910156 798.167969 355.472656 C 798.601562 354.035156 799.003906 352.585938 799.367188 351.128906 C 799.734375 349.671875 800.0625 348.203125 800.355469 346.730469 C 800.648438 345.253906 800.902344 343.773438 801.125 342.289062 C 801.34375 340.800781 801.527344 339.308594 801.675781 337.8125 C 801.820312 336.316406 801.933594 334.820312 802.007812 333.320312 C 802.078125 331.816406 802.117188 330.316406 802.117188 328.8125 C 802.117188 327.308594 802.078125 325.808594 802.007812 324.304688 C 801.933594 322.804688 801.820312 321.304688 801.675781 319.808594 C 801.527344 318.3125 801.34375 316.824219 801.125 315.335938 C 800.902344 313.847656 800.648438 312.367188 800.355469 310.894531 C 800.0625 309.417969 799.734375 307.953125 799.367188 306.496094 C 799.003906 305.039062 798.601562 303.589844 798.167969 302.152344 C 797.730469 300.710938 797.261719 299.285156 796.753906 297.871094 C 796.25 296.453125 795.707031 295.050781 795.132812 293.664062 C 794.558594 292.273438 793.953125 290.898438 793.308594 289.539062 C 792.667969 288.183594 791.992188 286.839844 791.285156 285.511719 C 790.578125 284.1875 789.835938 282.878906 789.066406 281.589844 C 788.292969 280.300781 787.492188 279.03125 786.65625 277.777344 C 785.824219 276.527344 784.957031 275.300781 784.0625 274.089844 C 783.167969 272.882812 782.246094 271.699219 781.292969 270.535156 C 780.339844 269.371094 779.359375 268.234375 778.351562 267.121094 C 777.34375 266.003906 776.308594 264.914062 775.246094 263.851562 L 546.148438 34.753906 C 545.085938 33.691406 543.996094 32.65625 542.878906 31.648438 C 541.765625 30.640625 540.628906 29.660156 539.464844 28.707031 C 538.300781 27.753906 537.117188 26.832031 535.910156 25.9375 C 534.699219 25.042969 533.472656 24.175781 532.222656 23.34375 C 530.96875 22.507812 529.699219 21.707031 528.410156 20.933594 C 527.121094 20.160156 525.8125 19.421875 524.488281 18.714844 C 523.160156 18.007812 521.820312 17.332031 520.460938 16.691406 C 519.101562 16.046875 517.726562 15.441406 516.335938 14.867188 C 514.949219 14.292969 513.546875 13.75 512.128906 13.246094 C 510.714844 12.738281 509.289062 12.269531 507.851562 11.832031 C 506.410156 11.398438 504.960938 10.996094 503.503906 10.632812 C 502.046875 10.265625 500.582031 9.9375 499.105469 9.644531 C 497.632812 9.351562 496.152344 9.097656 494.664062 8.875 C 493.175781 8.65625 491.6875 8.472656 490.191406 8.324219 C 488.695312 8.179688 487.195312 8.066406 485.695312 7.992188 C 484.191406 7.921875 482.691406 7.882812 481.1875 7.882812 C 479.683594 7.882812 478.183594 7.921875 476.679688 7.992188 C 475.179688 8.066406 473.683594 8.179688 472.1875 8.324219 C 470.691406 8.472656 469.199219 8.65625 467.710938 8.875 C 466.226562 9.097656 464.746094 9.351562 463.269531 9.644531 C 461.796875 9.9375 460.328125 10.265625 458.871094 10.632812 C 457.414062 10.996094 455.964844 11.398438 454.527344 11.832031 C 453.089844 12.269531 451.660156 12.738281 450.246094 13.246094 C 448.832031 13.75 447.429688 14.292969 446.039062 14.867188 C 444.648438 15.441406 443.277344 16.046875 441.917969 16.691406 C 440.558594 17.332031 439.214844 18.007812 437.890625 18.714844 C 436.5625 19.421875 435.253906 20.160156 433.964844 20.933594 C 432.675781 21.707031 431.40625 22.507812 430.15625 23.34375 C 428.90625 24.175781 427.675781 25.042969 426.46875 25.9375 C 425.257812 26.832031 424.074219 27.753906 422.910156 28.707031 C 421.75 29.660156 420.609375 30.640625 419.496094 31.648438 C 418.378906 32.65625 417.292969 33.691406 416.226562 34.753906 L 26.734375 424.515625 C 24.613281 426.632812 22.601562 428.847656 20.703125 431.164062 C 18.800781 433.480469 17.019531 435.882812 15.355469 438.375 C 13.691406 440.867188 12.152344 443.433594 10.742188 446.074219 C 9.332031 448.71875 8.054688 451.425781 6.910156 454.191406 C 5.765625 456.960938 4.761719 459.78125 3.894531 462.648438 C 3.027344 465.515625 2.304688 468.417969 1.722656 471.359375 C 1.144531 474.296875 0.710938 477.257812 0.421875 480.242188 C 0.132812 483.222656 -0.0078125 486.210938 0 489.207031 L 0 718.308594 C 0.00390625 719.804688 0.046875 721.304688 0.121094 722.800781 C 0.199219 724.300781 0.316406 725.792969 0.464844 727.285156 C 0.617188 728.777344 0.804688 730.265625 1.027344 731.746094 C 1.25 733.230469 1.511719 734.707031 1.804688 736.175781 C 2.101562 737.648438 2.433594 739.109375 2.800781 740.5625 C 3.167969 742.015625 3.570312 743.460938 4.007812 744.894531 C 4.445312 746.328125 4.917969 747.75 5.425781 749.160156 C 5.933594 750.574219 6.476562 751.96875 7.050781 753.355469 C 7.625 754.738281 8.234375 756.109375 8.878906 757.464844 C 9.519531 758.816406 10.195312 760.15625 10.90625 761.476562 C 11.613281 762.800781 12.355469 764.101562 13.125 765.386719 C 13.898438 766.675781 14.699219 767.941406 15.535156 769.1875 C 16.367188 770.433594 17.234375 771.65625 18.125 772.859375 C 19.019531 774.066406 19.941406 775.246094 20.894531 776.40625 C 21.847656 777.5625 22.824219 778.699219 23.832031 779.808594 C 24.839844 780.921875 25.875 782.003906 26.933594 783.066406 C 27.996094 784.125 29.078125 785.160156 30.191406 786.167969 C 31.300781 787.175781 32.4375 788.152344 33.59375 789.105469 C 34.753906 790.058594 35.933594 790.980469 37.140625 791.875 C 38.34375 792.765625 39.566406 793.632812 40.8125 794.464844 C 42.058594 795.300781 43.324219 796.101562 44.609375 796.875 C 45.898438 797.644531 47.199219 798.386719 48.523438 799.09375 C 49.84375 799.804688 51.179688 800.476562 52.535156 801.121094 C 53.890625 801.765625 55.261719 802.375 56.644531 802.949219 C 58.03125 803.523438 59.425781 804.066406 60.839844 804.574219 C 62.25 805.082031 63.671875 805.554688 65.105469 805.992188 C 66.539062 806.429688 67.984375 806.832031 69.4375 807.199219 C 70.890625 807.566406 72.351562 807.898438 73.824219 808.195312 C 75.292969 808.488281 76.769531 808.75 78.253906 808.972656 C 79.734375 809.195312 81.222656 809.382812 82.714844 809.535156 C 84.207031 809.683594 85.699219 809.800781 87.199219 809.878906 C 88.695312 809.953125 90.195312 809.996094 91.691406 810 Z M 53.464844 489.207031 C 53.488281 486.722656 53.75 484.261719 54.25 481.828125 C 54.75 479.390625 55.484375 477.027344 56.445312 474.734375 C 57.410156 472.445312 58.585938 470.265625 59.972656 468.203125 C 61.359375 466.140625 62.933594 464.230469 64.691406 462.476562 L 454.457031 72.980469 C 455.34375 72.125 456.269531 71.3125 457.230469 70.546875 C 458.195312 69.78125 459.195312 69.0625 460.230469 68.390625 C 461.261719 67.71875 462.328125 67.097656 463.417969 66.53125 C 464.511719 65.960938 465.628906 65.445312 466.773438 64.984375 C 467.914062 64.523438 469.078125 64.117188 470.257812 63.769531 C 471.441406 63.417969 472.636719 63.125 473.84375 62.890625 C 475.054688 62.65625 476.273438 62.480469 477.5 62.359375 C 478.726562 62.242188 479.957031 62.183594 481.1875 62.183594 C 482.421875 62.183594 483.648438 62.242188 484.875 62.359375 C 486.101562 62.480469 487.320312 62.65625 488.53125 62.890625 C 489.738281 63.125 490.9375 63.417969 492.117188 63.769531 C 493.296875 64.117188 494.460938 64.523438 495.601562 64.984375 C 496.746094 65.445312 497.863281 65.960938 498.957031 66.53125 C 500.050781 67.097656 501.113281 67.71875 502.148438 68.390625 C 503.179688 69.0625 504.179688 69.78125 505.144531 70.546875 C 506.109375 71.3125 507.035156 72.125 507.921875 72.980469 L 737.019531 302.078125 C 737.875 302.964844 738.6875 303.890625 739.453125 304.855469 C 740.21875 305.820312 740.9375 306.820312 741.609375 307.851562 C 742.28125 308.886719 742.902344 309.949219 743.46875 311.042969 C 744.039062 312.136719 744.554688 313.253906 745.015625 314.398438 C 745.476562 315.539062 745.882812 316.703125 746.230469 317.882812 C 746.582031 319.0625 746.875 320.261719 747.109375 321.46875 C 747.34375 322.679688 747.519531 323.898438 747.640625 325.125 C 747.757812 326.351562 747.816406 327.578125 747.816406 328.8125 C 747.816406 330.042969 747.757812 331.273438 747.640625 332.5 C 747.519531 333.726562 747.34375 334.945312 747.109375 336.152344 C 746.875 337.363281 746.582031 338.558594 746.230469 339.742188 C 745.882812 340.921875 745.476562 342.085938 745.015625 343.226562 C 744.554688 344.371094 744.039062 345.488281 743.46875 346.582031 C 742.902344 347.671875 742.28125 348.738281 741.609375 349.769531 C 740.9375 350.804688 740.21875 351.804688 739.453125 352.769531 C 738.6875 353.730469 737.875 354.65625 737.019531 355.542969 L 347.523438 745.308594 C 345.769531 747.066406 343.859375 748.640625 341.796875 750.027344 C 339.734375 751.414062 337.554688 752.589844 335.265625 753.554688 C 332.972656 754.515625 330.609375 755.25 328.171875 755.75 C 325.738281 756.25 323.277344 756.511719 320.792969 756.535156 L 91.960938 756.535156 C 90.707031 756.535156 89.453125 756.472656 88.203125 756.351562 C 86.953125 756.230469 85.714844 756.046875 84.484375 755.800781 C 83.25 755.558594 82.035156 755.253906 80.832031 754.890625 C 79.632812 754.527344 78.449219 754.109375 77.289062 753.628906 C 76.128906 753.152344 74.996094 752.617188 73.886719 752.027344 C 72.777344 751.441406 71.703125 750.796875 70.65625 750.101562 C 69.609375 749.410156 68.601562 748.664062 67.628906 747.871094 C 66.65625 747.078125 65.726562 746.238281 64.835938 745.355469 C 63.945312 744.46875 63.097656 743.542969 62.296875 742.578125 C 61.5 741.609375 60.746094 740.605469 60.046875 739.566406 C 59.34375 738.523438 58.695312 737.453125 58.097656 736.347656 C 57.5 735.242188 56.957031 734.113281 56.472656 732.957031 C 55.984375 731.800781 55.558594 730.621094 55.1875 729.421875 C 54.816406 728.222656 54.503906 727.007812 54.25 725.777344 C 53.996094 724.550781 53.804688 723.308594 53.675781 722.0625 C 53.542969 720.8125 53.472656 719.5625 53.464844 718.308594 Z M 53.464844 489.207031 " fill-opacity="1" fill-rule="nonzero"/><path fill="#000000" d="M 173.761719 676.335938 C 175.074219 676.335938 176.386719 676.273438 177.691406 676.144531 C 179 676.015625 180.296875 675.824219 181.585938 675.566406 C 182.875 675.308594 184.144531 674.992188 185.402344 674.609375 C 186.660156 674.230469 187.894531 673.785156 189.109375 673.285156 C 190.320312 672.78125 191.507812 672.222656 192.664062 671.601562 C 193.824219 670.984375 194.949219 670.308594 196.039062 669.578125 C 197.132812 668.847656 198.1875 668.066406 199.199219 667.234375 C 200.214844 666.402344 201.1875 665.519531 202.117188 664.59375 C 203.046875 663.664062 203.925781 662.691406 204.757812 661.675781 C 205.59375 660.660156 206.375 659.605469 207.101562 658.515625 C 207.832031 657.421875 208.507812 656.296875 209.125 655.140625 C 209.746094 653.980469 210.304688 652.796875 210.808594 651.582031 C 211.3125 650.371094 211.753906 649.132812 212.132812 647.878906 C 212.515625 646.621094 212.835938 645.347656 213.089844 644.0625 C 213.347656 642.773438 213.539062 641.476562 213.667969 640.167969 C 213.796875 638.859375 213.859375 637.550781 213.859375 636.238281 C 213.859375 634.925781 213.796875 633.613281 213.667969 632.308594 C 213.539062 631 213.347656 629.703125 213.089844 628.414062 C 212.835938 627.125 212.515625 625.855469 212.132812 624.597656 C 211.753906 623.339844 211.3125 622.105469 210.808594 620.890625 C 210.304688 619.679688 209.746094 618.492188 209.125 617.335938 C 208.507812 616.175781 207.832031 615.050781 207.101562 613.960938 C 206.375 612.867188 205.59375 611.8125 204.757812 610.800781 C 203.925781 609.785156 203.046875 608.8125 202.117188 607.882812 C 201.1875 606.953125 200.214844 606.074219 199.199219 605.242188 C 198.1875 604.40625 197.132812 603.625 196.039062 602.898438 C 194.949219 602.167969 193.824219 601.492188 192.664062 600.875 C 191.507812 600.253906 190.320312 599.695312 189.109375 599.191406 C 187.894531 598.6875 186.660156 598.246094 185.402344 597.867188 C 184.144531 597.484375 182.875 597.164062 181.585938 596.910156 C 180.296875 596.652344 179 596.460938 177.691406 596.332031 C 176.386719 596.203125 175.074219 596.136719 173.761719 596.136719 C 172.449219 596.136719 171.140625 596.203125 169.832031 596.332031 C 168.523438 596.460938 167.226562 596.652344 165.941406 596.910156 C 164.652344 597.164062 163.378906 597.484375 162.121094 597.867188 C 160.867188 598.246094 159.628906 598.6875 158.417969 599.191406 C 157.203125 599.695312 156.019531 600.253906 154.859375 600.875 C 153.703125 601.492188 152.578125 602.167969 151.484375 602.898438 C 150.394531 603.625 149.339844 604.40625 148.324219 605.242188 C 147.308594 606.074219 146.335938 606.953125 145.40625 607.882812 C 144.480469 608.8125 143.597656 609.785156 142.765625 610.800781 C 141.933594 611.8125 141.152344 612.867188 140.421875 613.960938 C 139.691406 615.050781 139.015625 616.175781 138.398438 617.335938 C 137.777344 618.492188 137.21875 619.679688 136.714844 620.890625 C 136.214844 622.105469 135.769531 623.339844 135.390625 624.597656 C 135.007812 625.855469 134.691406 627.125 134.433594 628.414062 C 134.175781 629.703125 133.984375 631 133.855469 632.308594 C 133.726562 633.613281 133.664062 634.925781 133.664062 636.238281 C 133.664062 637.550781 133.726562 638.859375 133.855469 640.167969 C 133.984375 641.476562 134.175781 642.773438 134.433594 644.0625 C 134.691406 645.347656 135.007812 646.621094 135.390625 647.878906 C 135.769531 649.132812 136.214844 650.371094 136.714844 651.582031 C 137.21875 652.796875 137.777344 653.980469 138.398438 655.140625 C 139.015625 656.296875 139.691406 657.421875 140.421875 658.515625 C 141.152344 659.605469 141.933594 660.660156 142.765625 661.675781 C 143.597656 662.691406 144.480469 663.664062 145.40625 664.59375 C 146.335938 665.519531 147.308594 666.402344 148.324219 667.234375 C 149.339844 668.066406 150.394531 668.847656 151.484375 669.578125 C 152.578125 670.308594 153.703125 670.984375 154.859375 671.601562 C 156.019531 672.222656 157.203125 672.78125 158.417969 673.285156 C 159.628906 673.785156 160.867188 674.230469 162.121094 674.609375 C 163.378906 674.992188 164.652344 675.308594 165.9375 675.566406 C 167.226562 675.824219 168.523438 676.015625 169.832031 676.144531 C 171.140625 676.273438 172.449219 676.335938 173.761719 676.335938 Z M 173.761719 622.871094 C 174.640625 622.871094 175.507812 622.957031 176.371094 623.128906 C 177.230469 623.300781 178.066406 623.554688 178.878906 623.890625 C 179.6875 624.226562 180.457031 624.636719 181.1875 625.125 C 181.917969 625.613281 182.59375 626.164062 183.214844 626.785156 C 183.835938 627.40625 184.386719 628.082031 184.875 628.8125 C 185.363281 629.542969 185.777344 630.3125 186.109375 631.121094 C 186.445312 631.933594 186.699219 632.769531 186.871094 633.628906 C 187.042969 634.492188 187.128906 635.359375 187.128906 636.238281 C 187.128906 637.117188 187.042969 637.984375 186.871094 638.84375 C 186.699219 639.707031 186.445312 640.542969 186.109375 641.351562 C 185.777344 642.164062 185.363281 642.933594 184.875 643.664062 C 184.386719 644.394531 183.835938 645.070312 183.214844 645.6875 C 182.59375 646.308594 181.917969 646.863281 181.1875 647.351562 C 180.457031 647.839844 179.6875 648.25 178.878906 648.585938 C 178.066406 648.921875 177.230469 649.175781 176.371094 649.347656 C 175.507812 649.519531 174.640625 649.605469 173.761719 649.605469 C 172.882812 649.605469 172.015625 649.519531 171.15625 649.347656 C 170.292969 649.175781 169.457031 648.921875 168.648438 648.585938 C 167.835938 648.25 167.066406 647.839844 166.335938 647.351562 C 165.605469 646.863281 164.929688 646.308594 164.3125 645.6875 C 163.691406 645.070312 163.136719 644.394531 162.648438 643.664062 C 162.160156 642.933594 161.75 642.164062 161.414062 641.351562 C 161.078125 640.542969 160.824219 639.707031 160.652344 638.84375 C 160.480469 637.984375 160.394531 637.117188 160.394531 636.238281 C 160.394531 635.359375 160.480469 634.492188 160.652344 633.628906 C 160.824219 632.769531 161.078125 631.933594 161.414062 631.121094 C 161.75 630.3125 162.160156 629.542969 162.648438 628.8125 C 163.136719 628.082031 163.691406 627.40625 164.3125 626.785156 C 164.929688 626.164062 165.605469 625.613281 166.335938 625.125 C 167.066406 624.636719 167.835938 624.226562 168.648438 623.890625 C 169.457031 623.554688 170.292969 623.300781 171.15625 623.128906 C 172.015625 622.957031 172.882812 622.871094 173.761719 622.871094 Z M 173.761719 622.871094 " fill-opacity="1" fill-rule="nonzero"/></svg>